<svg width="36" height="36" viewBox="0 0 36 36" fill="none" xmlns="http://www.w3.org/2000/svg">
<path d="M23.3978 7.94353C23.3978 5.29944 23.2645 1 17.843 1C12.4215 1 12.2881 5.23278 12.2881 7.94353" stroke="white" stroke-width="2" stroke-miterlimit="10" stroke-linecap="round" stroke-linejoin="round"/>
<path d="M31.2815 11.7875C31.2051 11.1959 30.6733 10.7209 30.0914 10.7209H5.59182C5.01273 10.7209 4.47947 11.1959 4.40309 11.7875L0.0189396 33.9151C-0.107433 34.9011 0.411944 35.7177 1.17851 35.7177H34.5075C35.2727 35.7177 35.792 34.9011 35.6657 33.9151L31.2815 11.7875ZM11.5938 16.2758C10.444 16.2758 9.51075 15.3426 9.51075 14.1927C9.51075 13.0429 10.444 12.1097 11.5938 12.1097C12.7437 12.1097 13.6769 13.0429 13.6769 14.1927C13.6769 15.3426 12.7437 16.2758 11.5938 16.2758ZM24.0922 16.2758C22.9423 16.2758 22.0091 15.3426 22.0091 14.1927C22.0091 13.0429 22.9437 12.1097 24.0922 12.1097C25.2406 12.1097 26.1752 13.0429 26.1752 14.1927C26.1752 15.3426 25.242 16.2758 24.0922 16.2758Z" fill="white"/>
</svg>
